<svg width="50" height="50" viewBox="0 0 50 50" fill="none" xmlns="http://www.w3.org/2000/svg">
<g clip-path="url(#clip0_610_4226)">
<path fill-rule="evenodd" clip-rule="evenodd" d="M39.5778 0.000201881H37.1196C34.4006 0.000201881 32.1964 2.20441 32.1964 4.92342V13.8102C32.388 13.3751 32.5946 12.9239 32.8233 12.4546L32.8301 12.4408C32.9745 11.8192 33.1763 11.2585 33.4101 10.7528C33.508 10.1083 33.5669 9.5877 33.6042 9.24107C33.6339 8.96605 33.7814 8.73232 33.9912 8.58476C34.016 8.45665 34.0483 8.3291 34.0892 8.20267C34.2418 7.73054 34.7388 7.46582 35.2124 7.59655C35.23 7.53738 35.2476 7.47804 35.2651 7.41853C35.3858 7.00772 35.7671 6.74445 36.1759 6.75587C36.3627 6.48119 36.689 6.32255 37.0291 6.35613C38.1775 4.26549 38.8726 2.64553 39.4685 0.260612C39.4921 0.166214 39.5294 0.0788766 39.5778 0.000201881ZM29.5663 34.0383C29.5113 34.1851 29.4546 34.3248 29.3967 34.4641C29.3689 34.5311 29.3407 34.5984 29.3121 34.6666L29.3118 34.6673C29.0047 35.3989 28.6551 36.2318 28.3793 37.8131C28.1667 39.0323 28.1691 40.2708 28.2201 41.1878C28.2458 41.65 28.2844 42.0392 28.3168 42.3147C28.3331 42.4525 28.3478 42.5624 28.3587 42.6391C28.3642 42.6774 28.3687 42.7076 28.3719 42.7288L28.3758 42.754L28.377 42.7615L28.3774 42.7639L28.3775 42.7648L28.3776 42.7651C28.3776 42.7653 28.3777 42.7654 29.2541 42.6223L28.3777 42.7654C28.4598 43.2686 28.9343 43.6098 29.4375 43.5276C29.4817 43.5204 29.5247 43.5102 29.5663 43.4971V45.0768C29.5663 47.7958 27.3621 50 24.6431 50H20.0982V45.7975C20.2112 45.3809 20.389 44.8031 20.628 44.0968C21.0124 42.9604 21.5283 41.5673 22.1065 40.144C22.6852 38.7198 23.3218 37.2761 23.9467 36.0349C24.581 34.7752 25.1719 33.7883 25.6499 33.2306C26.7518 31.945 27.7876 30.6524 28.7333 29.4148C28.0436 30.6255 26.8419 32.8367 25.8036 35.6615C25.3229 36.9693 24.956 38.8253 24.7236 40.4076C24.6062 41.2075 24.5202 41.9575 24.4708 42.5601C24.4462 42.8609 24.4301 43.1316 24.4243 43.3571C24.419 43.5634 24.4201 43.7903 24.4488 43.9722C24.5283 44.4758 25.0009 44.8196 25.5045 44.7402C26.0081 44.6607 26.3519 44.188 26.2724 43.6844C26.2727 43.6861 26.2728 43.687 26.2729 43.687C26.273 43.687 26.2706 43.667 26.2692 43.619C26.2676 43.5659 26.2676 43.4948 26.2699 43.4047C26.2745 43.2245 26.288 42.9902 26.3109 42.7108C26.3566 42.1532 26.4376 41.4428 26.5502 40.6758C26.778 39.1246 27.1235 37.422 27.5364 36.2984C28.207 34.474 28.9493 32.9176 29.5663 31.7383V34.0383ZM29.5663 18.2739V0.000201881H25.0214C22.3024 0.000201881 20.0982 2.20441 20.0982 4.92342V23.6532C23.6979 22.5284 26.3936 21.0759 28.484 19.2848C28.8627 18.9603 29.223 18.6235 29.5663 18.2739ZM17.4681 26.8414C15.4079 28.1834 13.2673 29.8137 11.7817 31.5646C11.4519 31.9533 11.4996 32.5358 11.8884 32.8657C12.2771 33.1955 12.8596 33.1478 13.1895 32.759C14.2878 31.4646 15.8349 30.2002 17.4681 29.0659V30.3312C15.5181 32.224 13.9674 33.8824 13.0793 34.9726C12.7572 35.3678 12.8166 35.9493 13.2119 36.2713C13.6071 36.5933 14.1886 36.5339 14.5106 36.1386C15.1514 35.3521 16.1757 34.2328 17.4681 32.9281V33.4929C15.7106 35.9263 14.2928 38.1178 13.6547 39.1977C13.3954 39.6367 13.541 40.2027 13.9799 40.4621C14.4188 40.7214 14.9848 40.5758 15.2442 40.1369C15.6626 39.4288 16.452 38.1889 17.4681 36.7032V45.0766C17.4681 47.7956 15.2639 49.9998 12.5449 49.9998H8V4.92322C8 2.2042 10.2042 0 12.9232 0H17.4681V24.3771C15.9122 24.7533 14.2114 25.081 12.3485 25.3608C11.8443 25.4366 11.497 25.9067 11.5727 26.4108C11.6485 26.915 12.1186 27.2623 12.6227 27.1865C14.3587 26.9258 15.9703 26.6225 17.4681 26.2745V26.8414ZM20.0982 33.0371V34.2802C20.7916 32.7597 21.7137 31.1067 22.9616 29.4662C22.1143 30.4488 21.2625 31.5098 20.4405 32.5859C20.3255 32.7364 20.2114 32.8869 20.0982 33.0371ZM20.0982 39.8067V40.1932C20.1954 39.9468 20.2948 39.6984 20.3961 39.4492C20.9867 37.9953 21.6438 36.5034 22.2977 35.2046C22.9424 33.9243 23.6157 32.767 24.2481 32.0292C26.0578 29.9178 27.6865 27.7852 29.0215 25.9221C28.6247 26.3233 28.187 26.73 27.7023 27.1397C22.4981 31.5388 20.9202 36.9355 20.0982 39.8067ZM20.0982 27.8638V27.3781C20.6321 27.0596 21.1494 26.7639 21.6356 26.4946C21.1107 26.9533 20.5972 27.4109 20.0982 27.8638ZM32.1964 35.2363C32.6938 36.5345 33.5125 37.8364 34.8329 38.7349C35.2544 39.0217 35.8286 38.9125 36.1154 38.491C36.4022 38.0695 36.293 37.4953 35.8715 37.2085C34.6715 36.392 33.9768 35.0292 33.6182 33.6187C33.2584 32.2035 33.2772 30.8956 33.3681 30.3819C33.4865 29.7134 33.7666 27.9372 34.0188 26.1421C34.2545 24.4642 34.4792 22.681 34.5085 21.7971C34.7072 21.1093 34.8788 20.4431 34.9967 19.8179C35.0075 19.7603 35.0184 19.7035 35.0293 19.6476C35.3853 18.7847 35.6083 18.0202 35.7523 17.3295C35.7965 17.1174 35.8329 16.9138 35.8634 16.7184C35.9366 16.5559 35.9943 16.4504 36.0305 16.3898C36.051 16.3554 36.0645 16.3356 36.0698 16.3281C36.1114 16.2766 36.1475 16.2208 36.1772 16.1616L35.9504 16.0477L35.9504 16.0477L36.1772 16.1615L36.1773 16.1613L36.1776 16.1607L36.1789 16.1582L36.1837 16.1487L36.2023 16.1114L36.2735 15.9691C36.3352 15.8458 36.4239 15.668 36.5325 15.4493C36.7497 15.0122 37.0467 14.4116 37.3657 13.7578C37.9989 12.4605 38.735 10.9218 39.0977 10.0491C39.2556 9.66916 39.1408 9.24403 38.8432 8.99123C38.8721 8.72709 38.7872 8.45257 38.5875 8.24716L38.5793 8.23875C38.6917 7.97212 38.6691 7.67933 38.5396 7.44033C39.7955 5.17615 40.5942 3.37141 41.2596 0.708138C41.3223 0.457103 41.2757 0.204385 41.15 0.000201881H41.6645V45.0768C41.6645 47.7958 39.4603 50 36.7413 50H32.1964V35.2363Z" fill="#E70111"/>
</g>
<defs>
<clipPath id="clip0_610_4226">
<rect width="50" height="50" fill="white"/>
</clipPath>
</defs>
</svg>
