<svg width="15" height="16" viewBox="0 0 15 16" fill="none" xmlns="http://www.w3.org/2000/svg">
<path d="M3 1.29167H2.5V1.79167H3V1.29167ZM12 1.29167V1.79167H12.5V1.29167H12ZM3 1V0.5H2.5V1H3ZM12 1H12.5V0.5H12V1ZM12 14.7083H12.5V14.2083H12V14.7083ZM3 14.7083V14.2083H2.5V14.7083H3ZM3 15H2.5V15.5H3V15ZM12 15V15.5H12.5V15H12ZM6.11788 14.7702C6.31314 14.9655 6.62972 14.9655 6.82498 14.7702L10.007 11.5882C10.2022 11.393 10.2022 11.0764 10.007 10.8811C9.8117 10.6859 9.49512 10.6859 9.29986 10.8811L6.47143 13.7096L3.643 10.8811C3.44774 10.6859 3.13116 10.6859 2.93589 10.8811C2.74063 11.0764 2.74063 11.393 2.93589 11.5882L6.11788 14.7702ZM6.82498 1.22978C6.62972 1.03452 6.31314 1.03452 6.11787 1.22978L2.93589 4.41176C2.74063 4.60702 2.74063 4.92361 2.93589 5.11887C3.13116 5.31413 3.44774 5.31413 3.643 5.11887L6.47143 2.29044L9.29986 5.11887C9.49512 5.31413 9.8117 5.31413 10.007 5.11887C10.2022 4.9236 10.2022 4.60702 10.007 4.41176L6.82498 1.22978ZM3 1.79167H12V0.791667H3V1.79167ZM3.5 1.29167V1H2.5V1.29167H3.5ZM3 1.5H12V0.5H3V1.5ZM11.5 1V1.29167H12.5V1H11.5ZM12 14.2083H3V15.2083H12V14.2083ZM3.5 15V14.7083H2.5V15H3.5ZM12 14.5H3V15.5H12V14.5ZM11.5 14.7083V15H12.5V14.7083H11.5ZM6.97143 14.4167L6.97143 1.58333H5.97143L5.97143 14.4167H6.97143Z" fill="#E70111"/>
</svg>
